<?xml version="1.0" encoding="UTF-8" standalone="no"?>
<!DOCTYPE svg PUBLIC "-//W3C//DTD SVG 1.1//EN"
 "http://www.w3.org/Graphics/SVG/1.1/DTD/svg11.dtd">
<!-- Generated by graphviz version 6.0.1 (20220911.1526)
 -->
<!-- Pages: 1 -->
<svg width="279pt" height="146pt"
 viewBox="0.00 0.00 278.91 145.82" xmlns="http://www.w3.org/2000/svg" xmlns:xlink="http://www.w3.org/1999/xlink">
<g id="graph0" class="graph" transform="scale(1 1) rotate(0) translate(4 141.82)">
<polygon fill="white" stroke="none" points="-4,4 -4,-141.82 274.91,-141.82 274.91,4 -4,4"/>
<!-- x -->
<g id="node1" class="node">
<title>x</title>
<polygon fill="lightgray" stroke="black" points="37.21,-117.12 17.21,-117.12 17.21,-99.12 37.21,-99.12 37.21,-117.12"/>
<text text-anchor="middle" x="27.21" y="-105.92" font-family="Times New Roman,serif" font-size="9.00">x</text>
</g>
<!-- 158 -->
<g id="node7" class="node">
<title>158</title>
<ellipse fill="white" stroke="black" cx="81.21" cy="-21.21" rx="21.43" ry="21.43"/>
<text text-anchor="middle" x="81.21" y="-19.01" font-family="Times New Roman,serif" font-size="9.00">158</text>
</g>
<!-- x&#45;&gt;158 -->
<g id="edge2" class="edge">
<title>x&#45;&gt;158</title>
<path fill="none" stroke="red" stroke-width="0.28" d="M32.39,-98.98C39.76,-87.39 53.62,-65.6 64.7,-48.19"/>
<polygon fill="red" stroke="red" stroke-width="0.28" points="67.77,-49.87 70.18,-39.56 61.86,-46.12 67.77,-49.87"/>
</g>
<!-- 167 -->
<g id="node8" class="node">
<title>167</title>
<ellipse fill="white" stroke="black" cx="21.21" cy="-21.21" rx="21.43" ry="21.43"/>
<text text-anchor="middle" x="21.21" y="-19.01" font-family="Times New Roman,serif" font-size="9.00">167</text>
</g>
<!-- x&#45;&gt;167 -->
<g id="edge6" class="edge">
<title>x&#45;&gt;167</title>
<path fill="none" stroke="green" stroke-width="0.17" d="M26.64,-98.98C25.89,-88.43 24.55,-69.42 23.39,-52.96"/>
<polygon fill="green" stroke="green" stroke-width="0.17" points="26.85,-52.35 22.66,-42.62 19.87,-52.85 26.85,-52.35"/>
</g>
<!-- dx -->
<g id="node2" class="node">
<title>dx</title>
<polygon fill="lightgray" stroke="black" points="140.71,-117.12 115.71,-117.12 115.71,-99.12 140.71,-99.12 140.71,-117.12"/>
<text text-anchor="middle" x="128.21" y="-105.92" font-family="Times New Roman,serif" font-size="9.00">dx</text>
</g>
<!-- 1 -->
<g id="node6" class="node">
<title>1</title>
<ellipse fill="lightblue" stroke="black" cx="155.21" cy="-21.21" rx="14.7" ry="14.7"/>
<text text-anchor="middle" x="155.21" y="-19.01" font-family="Times New Roman,serif" font-size="9.00">1</text>
</g>
<!-- dx&#45;&gt;1 -->
<g id="edge5" class="edge">
<title>dx&#45;&gt;1</title>
<path fill="none" stroke="red" stroke-width="0.79" d="M130.8,-98.98C134.69,-86.77 142.17,-63.24 147.83,-45.43"/>
<polygon fill="red" stroke="red" stroke-width="0.79" points="151.22,-46.33 150.91,-35.74 144.55,-44.21 151.22,-46.33"/>
</g>
<!-- dx&#45;&gt;158 -->
<g id="edge1" class="edge">
<title>dx&#45;&gt;158</title>
<path fill="none" stroke="green" stroke-width="0.19" d="M123.71,-98.98C117.43,-87.64 105.74,-66.52 96.21,-49.3"/>
<polygon fill="green" stroke="green" stroke-width="0.19" points="99.09,-47.28 91.18,-40.22 92.96,-50.67 99.09,-47.28"/>
</g>
<!-- theta -->
<g id="node3" class="node">
<title>theta</title>
<polygon fill="lightgray" stroke="black" points="193.71,-117.12 158.71,-117.12 158.71,-99.12 193.71,-99.12 193.71,-117.12"/>
<text text-anchor="middle" x="176.21" y="-105.92" font-family="Times New Roman,serif" font-size="9.00">theta</text>
</g>
<!-- theta&#45;&gt;1 -->
<g id="edge3" class="edge">
<title>theta&#45;&gt;1</title>
<path fill="none" stroke="green" stroke-width="0.29" d="M174.2,-98.98C171.19,-86.83 165.41,-63.46 161.02,-45.68"/>
<polygon fill="green" stroke="green" stroke-width="0.29" points="164.36,-44.61 158.56,-35.74 157.56,-46.29 164.36,-44.61"/>
</g>
<!-- dtheta -->
<g id="node4" class="node">
<title>dtheta</title>
<polygon fill="lightgray" stroke="black" points="97.71,-117.12 58.71,-117.12 58.71,-99.12 97.71,-99.12 97.71,-117.12"/>
<text text-anchor="middle" x="78.21" y="-105.92" font-family="Times New Roman,serif" font-size="9.00">dtheta</text>
</g>
<!-- dtheta&#45;&gt;158 -->
<g id="edge4" class="edge">
<title>dtheta&#45;&gt;158</title>
<path fill="none" stroke="green" stroke-width="0.2" d="M78.5,-98.98C78.87,-88.43 79.55,-69.42 80.13,-52.96"/>
<polygon fill="green" stroke="green" stroke-width="0.2" points="83.64,-52.74 80.49,-42.62 76.64,-52.49 83.64,-52.74"/>
</g>
<!-- control -->
<g id="node5" class="node">
<title>control</title>
<ellipse fill="lightblue" stroke="black" cx="241.21" cy="-108.12" rx="29.9" ry="29.9"/>
<text text-anchor="middle" x="241.21" y="-105.92" font-family="Times New Roman,serif" font-size="9.00">control</text>
</g>
</g>
</svg>
