<?xml version="1.0" encoding="UTF-8" standalone="no"?>
<!DOCTYPE svg PUBLIC "-//W3C//DTD SVG 1.1//EN"
 "http://www.w3.org/Graphics/SVG/1.1/DTD/svg11.dtd">
<!-- Generated by graphviz version 6.0.1 (20220911.1526)
 -->
<!-- Pages: 1 -->
<svg width="208pt" height="121pt"
 viewBox="0.00 0.00 207.70 121.40" xmlns="http://www.w3.org/2000/svg" xmlns:xlink="http://www.w3.org/1999/xlink">
<g id="graph0" class="graph" transform="scale(1 1) rotate(0) translate(4 117.4)">
<polygon fill="white" stroke="none" points="-4,4 -4,-117.4 203.7,-117.4 203.7,4 -4,4"/>
<!-- x -->
<g id="node1" class="node">
<title>x</title>
<polygon fill="lightgray" stroke="black" points="20,-113.4 0,-113.4 0,-95.4 20,-95.4 20,-113.4"/>
<text text-anchor="middle" x="10" y="-102.2" font-family="Times New Roman,serif" font-size="9.00">x</text>
</g>
<!-- dx -->
<g id="node2" class="node">
<title>dx</title>
<polygon fill="lightgray" stroke="black" points="63.5,-113.4 38.5,-113.4 38.5,-95.4 63.5,-95.4 63.5,-113.4"/>
<text text-anchor="middle" x="51" y="-102.2" font-family="Times New Roman,serif" font-size="9.00">dx</text>
</g>
<!-- 1 -->
<g id="node6" class="node">
<title>1</title>
<ellipse fill="lightblue" stroke="black" cx="86" cy="-29.7" rx="14.7" ry="14.7"/>
<text text-anchor="middle" x="86" y="-27.5" font-family="Times New Roman,serif" font-size="9.00">1</text>
</g>
<!-- dx&#45;&gt;1 -->
<g id="edge3" class="edge">
<title>dx&#45;&gt;1</title>
<path fill="none" stroke="green" stroke-width="0.2" d="M54.88,-95.34C59.8,-85.13 68.47,-67.12 75.41,-52.7"/>
<polygon fill="green" stroke="green" stroke-width="0.2" points="78.69,-53.96 79.87,-43.43 72.38,-50.92 78.69,-53.96"/>
</g>
<!-- theta -->
<g id="node3" class="node">
<title>theta</title>
<polygon fill="lightgray" stroke="black" points="187.5,-113.4 152.5,-113.4 152.5,-95.4 187.5,-95.4 187.5,-113.4"/>
<text text-anchor="middle" x="170" y="-102.2" font-family="Times New Roman,serif" font-size="9.00">theta</text>
</g>
<!-- control -->
<g id="node5" class="node">
<title>control</title>
<ellipse fill="lightblue" stroke="black" cx="170" cy="-29.7" rx="29.9" ry="29.9"/>
<text text-anchor="middle" x="170" y="-27.5" font-family="Times New Roman,serif" font-size="9.00">control</text>
</g>
<!-- theta&#45;&gt;control -->
<g id="edge1" class="edge">
<title>theta&#45;&gt;control</title>
<path fill="none" stroke="red" stroke-width="0.19" d="M170,-95.34C170,-88.92 170,-79.42 170,-69.66"/>
<polygon fill="red" stroke="red" stroke-width="0.19" points="173.5,-69.52 170,-59.52 166.5,-69.52 173.5,-69.52"/>
</g>
<!-- dtheta -->
<g id="node4" class="node">
<title>dtheta</title>
<polygon fill="lightgray" stroke="black" points="120.5,-113.4 81.5,-113.4 81.5,-95.4 120.5,-95.4 120.5,-113.4"/>
<text text-anchor="middle" x="101" y="-102.2" font-family="Times New Roman,serif" font-size="9.00">dtheta</text>
</g>
<!-- dtheta&#45;&gt;1 -->
<g id="edge2" class="edge">
<title>dtheta&#45;&gt;1</title>
<path fill="none" stroke="green" stroke-width="0.35" d="M99.34,-95.34C97.32,-85.56 93.83,-68.63 90.92,-54.55"/>
<polygon fill="green" stroke="green" stroke-width="0.35" points="94.3,-53.58 88.85,-44.5 87.44,-55 94.3,-53.58"/>
</g>
</g>
</svg>
