<?xml version="1.0" encoding="utf-8" standalone="no"?>
<!DOCTYPE svg PUBLIC "-//W3C//DTD SVG 1.1//EN"
  "http://www.w3.org/Graphics/SVG/1.1/DTD/svg11.dtd">
<svg xmlns:xlink="http://www.w3.org/1999/xlink" width="460.8pt" height="345.6pt" viewBox="0 0 460.8 345.6" xmlns="http://www.w3.org/2000/svg" version="1.1">
 <metadata>
  <rdf:RDF xmlns:dc="http://purl.org/dc/elements/1.1/" xmlns:cc="http://creativecommons.org/ns#" xmlns:rdf="http://www.w3.org/1999/02/22-rdf-syntax-ns#">
   <cc:Work>
    <dc:type rdf:resource="http://purl.org/dc/dcmitype/StillImage"/>
    <dc:date>2022-09-14T18:14:48.095448</dc:date>
    <dc:format>image/svg+xml</dc:format>
    <dc:creator>
     <cc:Agent>
      <dc:title>Matplotlib v3.5.2, https://matplotlib.org/</dc:title>
     </cc:Agent>
    </dc:creator>
   </cc:Work>
  </rdf:RDF>
 </metadata>
 <defs>
  <style type="text/css">*{stroke-linejoin: round; stroke-linecap: butt}</style>
 </defs>
 <g id="figure_1">
  <g id="patch_1">
   <path d="M 0 345.6 
L 460.8 345.6 
L 460.8 0 
L 0 0 
z
" style="fill: #ffffff"/>
  </g>
  <g id="axes_1">
   <g id="patch_2">
    <path d="M 57.6 307.584 
L 414.72 307.584 
L 414.72 41.472 
L 57.6 41.472 
z
" style="fill: #ffffff"/>
   </g>
   <g id="matplotlib.axis_1">
    <g id="xtick_1">
     <g id="line2d_1">
      <path d="M 73.832727 307.584 
L 73.832727 41.472 
" clip-path="url(#p64e2e02bf1)" style="fill: none; stroke: #b0b0b0; stroke-width: 0.8; stroke-linecap: square"/>
     </g>
     <g id="line2d_2">
      <defs>
       <path id="mdb23684beb" d="M 0 0 
L 0 3.5 
" style="stroke: #000000; stroke-width: 0.8"/>
      </defs>
      <g>
       <use xlink:href="#mdb23684beb" x="73.832727" y="307.584" style="stroke: #000000; stroke-width: 0.8"/>
      </g>
     </g>
     <g id="text_1">
      <!-- 0 -->
      <g transform="translate(70.651477 322.182437)scale(0.1 -0.1)">
       <defs>
        <path id="DejaVuSans-30" d="M 2034 4250 
Q 1547 4250 1301 3770 
Q 1056 3291 1056 2328 
Q 1056 1369 1301 889 
Q 1547 409 2034 409 
Q 2525 409 2770 889 
Q 3016 1369 3016 2328 
Q 3016 3291 2770 3770 
Q 2525 4250 2034 4250 
z
M 2034 4750 
Q 2819 4750 3233 4129 
Q 3647 3509 3647 2328 
Q 3647 1150 3233 529 
Q 2819 -91 2034 -91 
Q 1250 -91 836 529 
Q 422 1150 422 2328 
Q 422 3509 836 4129 
Q 1250 4750 2034 4750 
z
" transform="scale(0.015625)"/>
       </defs>
       <use xlink:href="#DejaVuSans-30"/>
      </g>
     </g>
    </g>
    <g id="xtick_2">
     <g id="line2d_3">
      <path d="M 116.18818 307.584 
L 116.18818 41.472 
" clip-path="url(#p64e2e02bf1)" style="fill: none; stroke: #b0b0b0; stroke-width: 0.8; stroke-linecap: square"/>
     </g>
     <g id="line2d_4">
      <g>
       <use xlink:href="#mdb23684beb" x="116.18818" y="307.584" style="stroke: #000000; stroke-width: 0.8"/>
      </g>
     </g>
     <g id="text_2">
      <!-- 200 -->
      <g transform="translate(106.64443 322.182437)scale(0.1 -0.1)">
       <defs>
        <path id="DejaVuSans-32" d="M 1228 531 
L 3431 531 
L 3431 0 
L 469 0 
L 469 531 
Q 828 903 1448 1529 
Q 2069 2156 2228 2338 
Q 2531 2678 2651 2914 
Q 2772 3150 2772 3378 
Q 2772 3750 2511 3984 
Q 2250 4219 1831 4219 
Q 1534 4219 1204 4116 
Q 875 4013 500 3803 
L 500 4441 
Q 881 4594 1212 4672 
Q 1544 4750 1819 4750 
Q 2544 4750 2975 4387 
Q 3406 4025 3406 3419 
Q 3406 3131 3298 2873 
Q 3191 2616 2906 2266 
Q 2828 2175 2409 1742 
Q 1991 1309 1228 531 
z
" transform="scale(0.015625)"/>
       </defs>
       <use xlink:href="#DejaVuSans-32"/>
       <use xlink:href="#DejaVuSans-30" x="63.623047"/>
       <use xlink:href="#DejaVuSans-30" x="127.246094"/>
      </g>
     </g>
    </g>
    <g id="xtick_3">
     <g id="line2d_5">
      <path d="M 158.543633 307.584 
L 158.543633 41.472 
" clip-path="url(#p64e2e02bf1)" style="fill: none; stroke: #b0b0b0; stroke-width: 0.8; stroke-linecap: square"/>
     </g>
     <g id="line2d_6">
      <g>
       <use xlink:href="#mdb23684beb" x="158.543633" y="307.584" style="stroke: #000000; stroke-width: 0.8"/>
      </g>
     </g>
     <g id="text_3">
      <!-- 400 -->
      <g transform="translate(148.999883 322.182437)scale(0.1 -0.1)">
       <defs>
        <path id="DejaVuSans-34" d="M 2419 4116 
L 825 1625 
L 2419 1625 
L 2419 4116 
z
M 2253 4666 
L 3047 4666 
L 3047 1625 
L 3713 1625 
L 3713 1100 
L 3047 1100 
L 3047 0 
L 2419 0 
L 2419 1100 
L 313 1100 
L 313 1709 
L 2253 4666 
z
" transform="scale(0.015625)"/>
       </defs>
       <use xlink:href="#DejaVuSans-34"/>
       <use xlink:href="#DejaVuSans-30" x="63.623047"/>
       <use xlink:href="#DejaVuSans-30" x="127.246094"/>
      </g>
     </g>
    </g>
    <g id="xtick_4">
     <g id="line2d_7">
      <path d="M 200.899086 307.584 
L 200.899086 41.472 
" clip-path="url(#p64e2e02bf1)" style="fill: none; stroke: #b0b0b0; stroke-width: 0.8; stroke-linecap: square"/>
     </g>
     <g id="line2d_8">
      <g>
       <use xlink:href="#mdb23684beb" x="200.899086" y="307.584" style="stroke: #000000; stroke-width: 0.8"/>
      </g>
     </g>
     <g id="text_4">
      <!-- 600 -->
      <g transform="translate(191.355336 322.182437)scale(0.1 -0.1)">
       <defs>
        <path id="DejaVuSans-36" d="M 2113 2584 
Q 1688 2584 1439 2293 
Q 1191 2003 1191 1497 
Q 1191 994 1439 701 
Q 1688 409 2113 409 
Q 2538 409 2786 701 
Q 3034 994 3034 1497 
Q 3034 2003 2786 2293 
Q 2538 2584 2113 2584 
z
M 3366 4563 
L 3366 3988 
Q 3128 4100 2886 4159 
Q 2644 4219 2406 4219 
Q 1781 4219 1451 3797 
Q 1122 3375 1075 2522 
Q 1259 2794 1537 2939 
Q 1816 3084 2150 3084 
Q 2853 3084 3261 2657 
Q 3669 2231 3669 1497 
Q 3669 778 3244 343 
Q 2819 -91 2113 -91 
Q 1303 -91 875 529 
Q 447 1150 447 2328 
Q 447 3434 972 4092 
Q 1497 4750 2381 4750 
Q 2619 4750 2861 4703 
Q 3103 4656 3366 4563 
z
" transform="scale(0.015625)"/>
       </defs>
       <use xlink:href="#DejaVuSans-36"/>
       <use xlink:href="#DejaVuSans-30" x="63.623047"/>
       <use xlink:href="#DejaVuSans-30" x="127.246094"/>
      </g>
     </g>
    </g>
    <g id="xtick_5">
     <g id="line2d_9">
      <path d="M 243.254538 307.584 
L 243.254538 41.472 
" clip-path="url(#p64e2e02bf1)" style="fill: none; stroke: #b0b0b0; stroke-width: 0.8; stroke-linecap: square"/>
     </g>
     <g id="line2d_10">
      <g>
       <use xlink:href="#mdb23684beb" x="243.254538" y="307.584" style="stroke: #000000; stroke-width: 0.8"/>
      </g>
     </g>
     <g id="text_5">
      <!-- 800 -->
      <g transform="translate(233.710788 322.182437)scale(0.1 -0.1)">
       <defs>
        <path id="DejaVuSans-38" d="M 2034 2216 
Q 1584 2216 1326 1975 
Q 1069 1734 1069 1313 
Q 1069 891 1326 650 
Q 1584 409 2034 409 
Q 2484 409 2743 651 
Q 3003 894 3003 1313 
Q 3003 1734 2745 1975 
Q 2488 2216 2034 2216 
z
M 1403 2484 
Q 997 2584 770 2862 
Q 544 3141 544 3541 
Q 544 4100 942 4425 
Q 1341 4750 2034 4750 
Q 2731 4750 3128 4425 
Q 3525 4100 3525 3541 
Q 3525 3141 3298 2862 
Q 3072 2584 2669 2484 
Q 3125 2378 3379 2068 
Q 3634 1759 3634 1313 
Q 3634 634 3220 271 
Q 2806 -91 2034 -91 
Q 1263 -91 848 271 
Q 434 634 434 1313 
Q 434 1759 690 2068 
Q 947 2378 1403 2484 
z
M 1172 3481 
Q 1172 3119 1398 2916 
Q 1625 2713 2034 2713 
Q 2441 2713 2670 2916 
Q 2900 3119 2900 3481 
Q 2900 3844 2670 4047 
Q 2441 4250 2034 4250 
Q 1625 4250 1398 4047 
Q 1172 3844 1172 3481 
z
" transform="scale(0.015625)"/>
       </defs>
       <use xlink:href="#DejaVuSans-38"/>
       <use xlink:href="#DejaVuSans-30" x="63.623047"/>
       <use xlink:href="#DejaVuSans-30" x="127.246094"/>
      </g>
     </g>
    </g>
    <g id="xtick_6">
     <g id="line2d_11">
      <path d="M 285.609991 307.584 
L 285.609991 41.472 
" clip-path="url(#p64e2e02bf1)" style="fill: none; stroke: #b0b0b0; stroke-width: 0.8; stroke-linecap: square"/>
     </g>
     <g id="line2d_12">
      <g>
       <use xlink:href="#mdb23684beb" x="285.609991" y="307.584" style="stroke: #000000; stroke-width: 0.8"/>
      </g>
     </g>
     <g id="text_6">
      <!-- 1000 -->
      <g transform="translate(272.884991 322.182437)scale(0.1 -0.1)">
       <defs>
        <path id="DejaVuSans-31" d="M 794 531 
L 1825 531 
L 1825 4091 
L 703 3866 
L 703 4441 
L 1819 4666 
L 2450 4666 
L 2450 531 
L 3481 531 
L 3481 0 
L 794 0 
L 794 531 
z
" transform="scale(0.015625)"/>
       </defs>
       <use xlink:href="#DejaVuSans-31"/>
       <use xlink:href="#DejaVuSans-30" x="63.623047"/>
       <use xlink:href="#DejaVuSans-30" x="127.246094"/>
       <use xlink:href="#DejaVuSans-30" x="190.869141"/>
      </g>
     </g>
    </g>
    <g id="xtick_7">
     <g id="line2d_13">
      <path d="M 327.965444 307.584 
L 327.965444 41.472 
" clip-path="url(#p64e2e02bf1)" style="fill: none; stroke: #b0b0b0; stroke-width: 0.8; stroke-linecap: square"/>
     </g>
     <g id="line2d_14">
      <g>
       <use xlink:href="#mdb23684beb" x="327.965444" y="307.584" style="stroke: #000000; stroke-width: 0.8"/>
      </g>
     </g>
     <g id="text_7">
      <!-- 1200 -->
      <g transform="translate(315.240444 322.182437)scale(0.1 -0.1)">
       <use xlink:href="#DejaVuSans-31"/>
       <use xlink:href="#DejaVuSans-32" x="63.623047"/>
       <use xlink:href="#DejaVuSans-30" x="127.246094"/>
       <use xlink:href="#DejaVuSans-30" x="190.869141"/>
      </g>
     </g>
    </g>
    <g id="xtick_8">
     <g id="line2d_15">
      <path d="M 370.320897 307.584 
L 370.320897 41.472 
" clip-path="url(#p64e2e02bf1)" style="fill: none; stroke: #b0b0b0; stroke-width: 0.8; stroke-linecap: square"/>
     </g>
     <g id="line2d_16">
      <g>
       <use xlink:href="#mdb23684beb" x="370.320897" y="307.584" style="stroke: #000000; stroke-width: 0.8"/>
      </g>
     </g>
     <g id="text_8">
      <!-- 1400 -->
      <g transform="translate(357.595897 322.182437)scale(0.1 -0.1)">
       <use xlink:href="#DejaVuSans-31"/>
       <use xlink:href="#DejaVuSans-34" x="63.623047"/>
       <use xlink:href="#DejaVuSans-30" x="127.246094"/>
       <use xlink:href="#DejaVuSans-30" x="190.869141"/>
      </g>
     </g>
    </g>
    <g id="xtick_9">
     <g id="line2d_17">
      <path d="M 412.676349 307.584 
L 412.676349 41.472 
" clip-path="url(#p64e2e02bf1)" style="fill: none; stroke: #b0b0b0; stroke-width: 0.8; stroke-linecap: square"/>
     </g>
     <g id="line2d_18">
      <g>
       <use xlink:href="#mdb23684beb" x="412.676349" y="307.584" style="stroke: #000000; stroke-width: 0.8"/>
      </g>
     </g>
     <g id="text_9">
      <!-- 1600 -->
      <g transform="translate(399.951349 322.182437)scale(0.1 -0.1)">
       <use xlink:href="#DejaVuSans-31"/>
       <use xlink:href="#DejaVuSans-36" x="63.623047"/>
       <use xlink:href="#DejaVuSans-30" x="127.246094"/>
       <use xlink:href="#DejaVuSans-30" x="190.869141"/>
      </g>
     </g>
    </g>
    <g id="text_10">
     <!-- Steps -->
     <g transform="translate(222.170156 335.860562)scale(0.1 -0.1)">
      <defs>
       <path id="DejaVuSans-53" d="M 3425 4513 
L 3425 3897 
Q 3066 4069 2747 4153 
Q 2428 4238 2131 4238 
Q 1616 4238 1336 4038 
Q 1056 3838 1056 3469 
Q 1056 3159 1242 3001 
Q 1428 2844 1947 2747 
L 2328 2669 
Q 3034 2534 3370 2195 
Q 3706 1856 3706 1288 
Q 3706 609 3251 259 
Q 2797 -91 1919 -91 
Q 1588 -91 1214 -16 
Q 841 59 441 206 
L 441 856 
Q 825 641 1194 531 
Q 1563 422 1919 422 
Q 2459 422 2753 634 
Q 3047 847 3047 1241 
Q 3047 1584 2836 1778 
Q 2625 1972 2144 2069 
L 1759 2144 
Q 1053 2284 737 2584 
Q 422 2884 422 3419 
Q 422 4038 858 4394 
Q 1294 4750 2059 4750 
Q 2388 4750 2728 4690 
Q 3069 4631 3425 4513 
z
" transform="scale(0.015625)"/>
       <path id="DejaVuSans-74" d="M 1172 4494 
L 1172 3500 
L 2356 3500 
L 2356 3053 
L 1172 3053 
L 1172 1153 
Q 1172 725 1289 603 
Q 1406 481 1766 481 
L 2356 481 
L 2356 0 
L 1766 0 
Q 1100 0 847 248 
Q 594 497 594 1153 
L 594 3053 
L 172 3053 
L 172 3500 
L 594 3500 
L 594 4494 
L 1172 4494 
z
" transform="scale(0.015625)"/>
       <path id="DejaVuSans-65" d="M 3597 1894 
L 3597 1613 
L 953 1613 
Q 991 1019 1311 708 
Q 1631 397 2203 397 
Q 2534 397 2845 478 
Q 3156 559 3463 722 
L 3463 178 
Q 3153 47 2828 -22 
Q 2503 -91 2169 -91 
Q 1331 -91 842 396 
Q 353 884 353 1716 
Q 353 2575 817 3079 
Q 1281 3584 2069 3584 
Q 2775 3584 3186 3129 
Q 3597 2675 3597 1894 
z
M 3022 2063 
Q 3016 2534 2758 2815 
Q 2500 3097 2075 3097 
Q 1594 3097 1305 2825 
Q 1016 2553 972 2059 
L 3022 2063 
z
" transform="scale(0.015625)"/>
       <path id="DejaVuSans-70" d="M 1159 525 
L 1159 -1331 
L 581 -1331 
L 581 3500 
L 1159 3500 
L 1159 2969 
Q 1341 3281 1617 3432 
Q 1894 3584 2278 3584 
Q 2916 3584 3314 3078 
Q 3713 2572 3713 1747 
Q 3713 922 3314 415 
Q 2916 -91 2278 -91 
Q 1894 -91 1617 61 
Q 1341 213 1159 525 
z
M 3116 1747 
Q 3116 2381 2855 2742 
Q 2594 3103 2138 3103 
Q 1681 3103 1420 2742 
Q 1159 2381 1159 1747 
Q 1159 1113 1420 752 
Q 1681 391 2138 391 
Q 2594 391 2855 752 
Q 3116 1113 3116 1747 
z
" transform="scale(0.015625)"/>
       <path id="DejaVuSans-73" d="M 2834 3397 
L 2834 2853 
Q 2591 2978 2328 3040 
Q 2066 3103 1784 3103 
Q 1356 3103 1142 2972 
Q 928 2841 928 2578 
Q 928 2378 1081 2264 
Q 1234 2150 1697 2047 
L 1894 2003 
Q 2506 1872 2764 1633 
Q 3022 1394 3022 966 
Q 3022 478 2636 193 
Q 2250 -91 1575 -91 
Q 1294 -91 989 -36 
Q 684 19 347 128 
L 347 722 
Q 666 556 975 473 
Q 1284 391 1588 391 
Q 1994 391 2212 530 
Q 2431 669 2431 922 
Q 2431 1156 2273 1281 
Q 2116 1406 1581 1522 
L 1381 1569 
Q 847 1681 609 1914 
Q 372 2147 372 2553 
Q 372 3047 722 3315 
Q 1072 3584 1716 3584 
Q 2034 3584 2315 3537 
Q 2597 3491 2834 3397 
z
" transform="scale(0.015625)"/>
      </defs>
      <use xlink:href="#DejaVuSans-53"/>
      <use xlink:href="#DejaVuSans-74" x="63.476562"/>
      <use xlink:href="#DejaVuSans-65" x="102.685547"/>
      <use xlink:href="#DejaVuSans-70" x="164.208984"/>
      <use xlink:href="#DejaVuSans-73" x="227.685547"/>
     </g>
    </g>
   </g>
   <g id="matplotlib.axis_2">
    <g id="ytick_1">
     <g id="line2d_19">
      <path d="M 57.6 295.488 
L 414.72 295.488 
" clip-path="url(#p64e2e02bf1)" style="fill: none; stroke: #b0b0b0; stroke-width: 0.8; stroke-linecap: square"/>
     </g>
     <g id="line2d_20">
      <defs>
       <path id="ma9186693ab" d="M 0 0 
L -3.5 0 
" style="stroke: #000000; stroke-width: 0.8"/>
      </defs>
      <g>
       <use xlink:href="#ma9186693ab" x="57.6" y="295.488" style="stroke: #000000; stroke-width: 0.8"/>
      </g>
     </g>
     <g id="text_11">
      <!-- −100 -->
      <g transform="translate(23.132812 299.287219)scale(0.1 -0.1)">
       <defs>
        <path id="DejaVuSans-2212" d="M 678 2272 
L 4684 2272 
L 4684 1741 
L 678 1741 
L 678 2272 
z
" transform="scale(0.015625)"/>
       </defs>
       <use xlink:href="#DejaVuSans-2212"/>
       <use xlink:href="#DejaVuSans-31" x="83.789062"/>
       <use xlink:href="#DejaVuSans-30" x="147.412109"/>
       <use xlink:href="#DejaVuSans-30" x="211.035156"/>
      </g>
     </g>
    </g>
    <g id="ytick_2">
     <g id="line2d_21">
      <path d="M 57.6 265.248 
L 414.72 265.248 
" clip-path="url(#p64e2e02bf1)" style="fill: none; stroke: #b0b0b0; stroke-width: 0.8; stroke-linecap: square"/>
     </g>
     <g id="line2d_22">
      <g>
       <use xlink:href="#ma9186693ab" x="57.6" y="265.248" style="stroke: #000000; stroke-width: 0.8"/>
      </g>
     </g>
     <g id="text_12">
      <!-- −75 -->
      <g transform="translate(29.495313 269.047219)scale(0.1 -0.1)">
       <defs>
        <path id="DejaVuSans-37" d="M 525 4666 
L 3525 4666 
L 3525 4397 
L 1831 0 
L 1172 0 
L 2766 4134 
L 525 4134 
L 525 4666 
z
" transform="scale(0.015625)"/>
        <path id="DejaVuSans-35" d="M 691 4666 
L 3169 4666 
L 3169 4134 
L 1269 4134 
L 1269 2991 
Q 1406 3038 1543 3061 
Q 1681 3084 1819 3084 
Q 2600 3084 3056 2656 
Q 3513 2228 3513 1497 
Q 3513 744 3044 326 
Q 2575 -91 1722 -91 
Q 1428 -91 1123 -41 
Q 819 9 494 109 
L 494 744 
Q 775 591 1075 516 
Q 1375 441 1709 441 
Q 2250 441 2565 725 
Q 2881 1009 2881 1497 
Q 2881 1984 2565 2268 
Q 2250 2553 1709 2553 
Q 1456 2553 1204 2497 
Q 953 2441 691 2322 
L 691 4666 
z
" transform="scale(0.015625)"/>
       </defs>
       <use xlink:href="#DejaVuSans-2212"/>
       <use xlink:href="#DejaVuSans-37" x="83.789062"/>
       <use xlink:href="#DejaVuSans-35" x="147.412109"/>
      </g>
     </g>
    </g>
    <g id="ytick_3">
     <g id="line2d_23">
      <path d="M 57.6 235.008 
L 414.72 235.008 
" clip-path="url(#p64e2e02bf1)" style="fill: none; stroke: #b0b0b0; stroke-width: 0.8; stroke-linecap: square"/>
     </g>
     <g id="line2d_24">
      <g>
       <use xlink:href="#ma9186693ab" x="57.6" y="235.008" style="stroke: #000000; stroke-width: 0.8"/>
      </g>
     </g>
     <g id="text_13">
      <!-- −50 -->
      <g transform="translate(29.495313 238.807219)scale(0.1 -0.1)">
       <use xlink:href="#DejaVuSans-2212"/>
       <use xlink:href="#DejaVuSans-35" x="83.789062"/>
       <use xlink:href="#DejaVuSans-30" x="147.412109"/>
      </g>
     </g>
    </g>
    <g id="ytick_4">
     <g id="line2d_25">
      <path d="M 57.6 204.768 
L 414.72 204.768 
" clip-path="url(#p64e2e02bf1)" style="fill: none; stroke: #b0b0b0; stroke-width: 0.8; stroke-linecap: square"/>
     </g>
     <g id="line2d_26">
      <g>
       <use xlink:href="#ma9186693ab" x="57.6" y="204.768" style="stroke: #000000; stroke-width: 0.8"/>
      </g>
     </g>
     <g id="text_14">
      <!-- −25 -->
      <g transform="translate(29.495313 208.567219)scale(0.1 -0.1)">
       <use xlink:href="#DejaVuSans-2212"/>
       <use xlink:href="#DejaVuSans-32" x="83.789062"/>
       <use xlink:href="#DejaVuSans-35" x="147.412109"/>
      </g>
     </g>
    </g>
    <g id="ytick_5">
     <g id="line2d_27">
      <path d="M 57.6 174.528 
L 414.72 174.528 
" clip-path="url(#p64e2e02bf1)" style="fill: none; stroke: #b0b0b0; stroke-width: 0.8; stroke-linecap: square"/>
     </g>
     <g id="line2d_28">
      <g>
       <use xlink:href="#ma9186693ab" x="57.6" y="174.528" style="stroke: #000000; stroke-width: 0.8"/>
      </g>
     </g>
     <g id="text_15">
      <!-- 0 -->
      <g transform="translate(44.2375 178.327219)scale(0.1 -0.1)">
       <use xlink:href="#DejaVuSans-30"/>
      </g>
     </g>
    </g>
    <g id="ytick_6">
     <g id="line2d_29">
      <path d="M 57.6 144.288 
L 414.72 144.288 
" clip-path="url(#p64e2e02bf1)" style="fill: none; stroke: #b0b0b0; stroke-width: 0.8; stroke-linecap: square"/>
     </g>
     <g id="line2d_30">
      <g>
       <use xlink:href="#ma9186693ab" x="57.6" y="144.288" style="stroke: #000000; stroke-width: 0.8"/>
      </g>
     </g>
     <g id="text_16">
      <!-- 25 -->
      <g transform="translate(37.875 148.087219)scale(0.1 -0.1)">
       <use xlink:href="#DejaVuSans-32"/>
       <use xlink:href="#DejaVuSans-35" x="63.623047"/>
      </g>
     </g>
    </g>
    <g id="ytick_7">
     <g id="line2d_31">
      <path d="M 57.6 114.048 
L 414.72 114.048 
" clip-path="url(#p64e2e02bf1)" style="fill: none; stroke: #b0b0b0; stroke-width: 0.8; stroke-linecap: square"/>
     </g>
     <g id="line2d_32">
      <g>
       <use xlink:href="#ma9186693ab" x="57.6" y="114.048" style="stroke: #000000; stroke-width: 0.8"/>
      </g>
     </g>
     <g id="text_17">
      <!-- 50 -->
      <g transform="translate(37.875 117.847219)scale(0.1 -0.1)">
       <use xlink:href="#DejaVuSans-35"/>
       <use xlink:href="#DejaVuSans-30" x="63.623047"/>
      </g>
     </g>
    </g>
    <g id="ytick_8">
     <g id="line2d_33">
      <path d="M 57.6 83.808 
L 414.72 83.808 
" clip-path="url(#p64e2e02bf1)" style="fill: none; stroke: #b0b0b0; stroke-width: 0.8; stroke-linecap: square"/>
     </g>
     <g id="line2d_34">
      <g>
       <use xlink:href="#ma9186693ab" x="57.6" y="83.808" style="stroke: #000000; stroke-width: 0.8"/>
      </g>
     </g>
     <g id="text_18">
      <!-- 75 -->
      <g transform="translate(37.875 87.607219)scale(0.1 -0.1)">
       <use xlink:href="#DejaVuSans-37"/>
       <use xlink:href="#DejaVuSans-35" x="63.623047"/>
      </g>
     </g>
    </g>
    <g id="ytick_9">
     <g id="line2d_35">
      <path d="M 57.6 53.568 
L 414.72 53.568 
" clip-path="url(#p64e2e02bf1)" style="fill: none; stroke: #b0b0b0; stroke-width: 0.8; stroke-linecap: square"/>
     </g>
     <g id="line2d_36">
      <g>
       <use xlink:href="#ma9186693ab" x="57.6" y="53.568" style="stroke: #000000; stroke-width: 0.8"/>
      </g>
     </g>
     <g id="text_19">
      <!-- 100 -->
      <g transform="translate(31.5125 57.367219)scale(0.1 -0.1)">
       <use xlink:href="#DejaVuSans-31"/>
       <use xlink:href="#DejaVuSans-30" x="63.623047"/>
       <use xlink:href="#DejaVuSans-30" x="127.246094"/>
      </g>
     </g>
    </g>
    <g id="text_20">
     <!-- Fitness -->
     <g transform="translate(17.053125 191.845187)rotate(-90)scale(0.1 -0.1)">
      <defs>
       <path id="DejaVuSans-46" d="M 628 4666 
L 3309 4666 
L 3309 4134 
L 1259 4134 
L 1259 2759 
L 3109 2759 
L 3109 2228 
L 1259 2228 
L 1259 0 
L 628 0 
L 628 4666 
z
" transform="scale(0.015625)"/>
       <path id="DejaVuSans-69" d="M 603 3500 
L 1178 3500 
L 1178 0 
L 603 0 
L 603 3500 
z
M 603 4863 
L 1178 4863 
L 1178 4134 
L 603 4134 
L 603 4863 
z
" transform="scale(0.015625)"/>
       <path id="DejaVuSans-6e" d="M 3513 2113 
L 3513 0 
L 2938 0 
L 2938 2094 
Q 2938 2591 2744 2837 
Q 2550 3084 2163 3084 
Q 1697 3084 1428 2787 
Q 1159 2491 1159 1978 
L 1159 0 
L 581 0 
L 581 3500 
L 1159 3500 
L 1159 2956 
Q 1366 3272 1645 3428 
Q 1925 3584 2291 3584 
Q 2894 3584 3203 3211 
Q 3513 2838 3513 2113 
z
" transform="scale(0.015625)"/>
      </defs>
      <use xlink:href="#DejaVuSans-46"/>
      <use xlink:href="#DejaVuSans-69" x="50.269531"/>
      <use xlink:href="#DejaVuSans-74" x="78.052734"/>
      <use xlink:href="#DejaVuSans-6e" x="117.261719"/>
      <use xlink:href="#DejaVuSans-65" x="180.640625"/>
      <use xlink:href="#DejaVuSans-73" x="242.164062"/>
      <use xlink:href="#DejaVuSans-73" x="294.263672"/>
     </g>
    </g>
   </g>
   <g id="line2d_37">
    <path d="M 73.832727 174.548728 
L 74.044505 174.446659 
L 74.256282 173.992916 
L 74.468059 174.237089 
L 74.679836 173.585751 
L 75.103391 173.763435 
L 75.315168 174.245348 
L 75.526945 175.689976 
L 75.738723 176.141625 
L 75.9505 176.118096 
L 76.162277 174.873418 
L 76.374054 175.252915 
L 76.585832 170.793739 
L 76.797609 176.719284 
L 77.009386 176.91311 
L 77.221163 172.188384 
L 77.432941 178.114132 
L 77.856495 177.834916 
L 78.068273 170.610419 
L 78.28005 177.368947 
L 78.491827 173.509741 
L 78.703604 173.23206 
L 78.915382 177.235626 
L 79.127159 169.80442 
L 79.338936 177.058707 
L 79.550713 169.718733 
L 79.762491 176.661204 
L 79.974268 168.563228 
L 80.186045 176.669295 
L 80.397822 170.312095 
L 80.6096 176.345482 
L 81.033154 169.712047 
L 81.244932 173.36104 
L 81.456709 169.828211 
L 81.668486 172.34268 
L 82.092041 168.590652 
L 82.303818 176.080435 
L 82.515595 168.28629 
L 82.727372 168.908074 
L 82.93915 175.779768 
L 83.150927 170.841207 
L 83.362704 170.254726 
L 83.574481 170.605 
L 83.786259 169.028505 
L 83.998036 172.228208 
L 84.209813 171.386514 
L 84.42159 175.385466 
L 84.633368 170.954415 
L 84.845145 175.694528 
L 85.2687 169.738142 
L 85.480477 169.897685 
L 85.692254 176.176108 
L 85.904031 176.368566 
L 86.115809 169.396052 
L 86.327586 176.692938 
L 86.539363 169.941152 
L 86.75114 177.044486 
L 86.962918 177.260671 
L 87.174695 171.345262 
L 87.386472 177.611304 
L 87.598249 174.747358 
L 87.810027 173.461487 
L 88.021804 173.762343 
L 88.233581 170.37662 
L 88.445358 178.075953 
L 88.657136 178.041571 
L 88.868913 171.263128 
L 89.08069 178.384302 
L 89.292468 171.578799 
L 89.504245 177.394188 
L 89.716022 177.239273 
L 89.927799 173.891923 
L 90.139577 173.220047 
L 90.351354 176.875542 
L 90.563131 176.079247 
L 90.986686 174.004413 
L 91.198463 174.189612 
L 91.41024 175.757255 
L 91.622017 172.583824 
L 91.833795 172.383137 
L 92.045572 175.342636 
L 92.257349 175.239537 
L 92.469126 173.340359 
L 92.680904 174.805972 
L 92.892681 172.558904 
L 93.104458 174.735936 
L 93.528013 173.621812 
L 93.73979 173.453923 
L 93.951567 174.296843 
L 94.163345 173.377154 
L 94.375122 175.100511 
L 94.586899 173.297645 
L 94.798676 175.494186 
L 95.010454 174.436286 
L 95.434008 173.320473 
L 95.645785 172.812033 
L 95.857563 173.182891 
L 96.06934 172.779991 
L 96.281117 173.473613 
L 96.704672 175.226155 
L 96.916449 172.629718 
L 97.128226 172.274019 
L 97.340004 173.770546 
L 97.551781 172.922986 
L 97.763558 172.755025 
L 97.975335 175.379269 
L 98.187113 173.700578 
L 98.39889 173.748203 
L 98.610667 171.709789 
L 98.822444 173.818641 
L 99.034222 174.044212 
L 99.245999 173.731633 
L 99.669553 173.859968 
L 99.881331 173.706102 
L 100.093108 172.65678 
L 100.72844 174.957007 
L 100.940217 174.051341 
L 101.151994 171.622668 
L 101.363772 171.293822 
L 101.575549 173.820415 
L 101.787326 173.886684 
L 101.999103 171.215845 
L 102.210881 174.261708 
L 102.422658 173.913217 
L 102.634435 176.457413 
L 102.846212 176.536425 
L 103.05799 172.80166 
L 103.269767 176.626431 
L 103.481544 175.871919 
L 103.693321 176.830951 
L 103.905099 176.943392 
L 104.116876 173.580156 
L 104.328653 177.061622 
L 104.752208 176.033124 
L 104.963985 173.689142 
L 105.175762 177.341468 
L 105.38754 174.398792 
L 105.811094 177.513402 
L 106.022871 175.342043 
L 106.234649 177.664543 
L 106.658203 173.963672 
L 106.86998 174.045057 
L 107.081758 177.725616 
L 107.293535 165.755917 
L 107.505312 171.193133 
L 107.717089 171.469561 
L 108.140644 168.091973 
L 108.352421 167.995745 
L 108.564199 170.976433 
L 108.987753 196.552816 
L 109.19953 184.57997 
L 109.623085 184.823269 
L 109.834862 183.356164 
L 110.046639 171.315536 
L 110.258417 180.800212 
L 110.470194 166.413053 
L 110.681971 179.912716 
L 110.893748 180.247006 
L 111.105526 295.488 
L 111.317303 173.045729 
L 111.952635 173.121108 
L 112.799744 175.836388 
L 113.011521 176.116986 
L 113.646853 177.392479 
L 114.070407 171.3147 
L 114.282185 173.860683 
L 114.493962 173.828284 
L 114.705739 174.507274 
L 114.917516 177.485078 
L 115.129294 172.589387 
L 115.341071 178.89547 
L 115.552848 174.813568 
L 115.764626 174.447938 
L 115.976403 178.848177 
L 116.18818 169.934842 
L 116.399957 178.728358 
L 116.611735 178.220929 
L 117.035289 173.016211 
L 117.247066 178.122888 
L 117.458844 170.298851 
L 117.670621 178.063356 
L 117.882398 177.657736 
L 118.094175 170.509559 
L 118.305953 177.527371 
L 118.51773 177.315625 
L 118.729507 172.478448 
L 118.941284 176.871648 
L 119.153062 170.213506 
L 119.364839 176.776949 
L 119.576616 170.420517 
L 119.788394 176.541125 
L 120.000171 176.248467 
L 120.211948 168.476241 
L 120.423725 175.954446 
L 120.635503 175.727786 
L 121.059057 169.88301 
L 121.270834 175.411045 
L 121.482612 175.097998 
L 121.694389 167.000913 
L 121.906166 174.910344 
L 122.117943 174.69137 
L 122.329721 167.544353 
L 122.541498 174.423926 
L 122.753275 174.107228 
L 122.965052 168.194685 
L 123.17683 173.945744 
L 123.600384 173.630172 
L 123.812162 168.549332 
L 124.023939 173.895572 
L 124.235716 174.080931 
L 124.447493 171.884973 
L 124.659271 178.781509 
L 124.871048 174.399718 
L 125.082825 178.627632 
L 125.294602 173.557605 
L 125.50638 178.461002 
L 125.718157 178.162212 
L 125.929934 173.725968 
L 126.141711 177.824487 
L 126.353489 170.591524 
L 126.565266 177.528086 
L 126.777043 175.170989 
L 126.98882 170.94571 
L 127.200598 177.455879 
L 127.412375 177.115515 
L 127.83593 169.72051 
L 128.047707 176.918234 
L 128.259484 176.708656 
L 128.471261 172.398638 
L 128.683039 173.684886 
L 128.894816 171.976742 
L 129.106593 176.176533 
L 129.31837 170.742307 
L 129.530148 171.403279 
L 129.741925 176.066929 
L 129.953702 173.775161 
L 130.165479 174.525056 
L 130.589034 171.403617 
L 131.012589 175.471884 
L 131.224366 173.216919 
L 131.436143 173.322523 
L 131.64792 172.472062 
L 131.859698 171.137221 
L 132.071475 175.102223 
L 132.283252 171.797409 
L 132.495029 170.279558 
L 132.706807 174.946378 
L 133.130361 170.190607 
L 133.342138 174.575706 
L 133.553916 171.918593 
L 133.765693 170.711645 
L 133.97747 174.361905 
L 134.189247 172.647121 
L 134.401025 173.450372 
L 134.612802 170.533147 
L 135.036357 174.288658 
L 135.248134 170.871772 
L 135.459911 171.473292 
L 135.671688 171.582908 
L 135.883466 174.044235 
L 136.095243 172.179865 
L 136.30702 172.27574 
L 136.518797 170.366851 
L 136.730575 173.278557 
L 136.942352 170.660281 
L 137.154129 171.925785 
L 137.365906 176.106064 
L 137.577684 177.284164 
L 137.789461 176.27137 
L 138.001238 174.008274 
L 138.213015 177.199919 
L 138.424793 177.602884 
L 138.63657 173.357989 
L 138.848347 177.187063 
L 139.060125 177.372858 
L 139.271902 172.181775 
L 139.483679 177.364592 
L 139.695456 176.163127 
L 139.907234 173.370019 
L 140.119011 176.077515 
L 140.330788 172.887746 
L 140.754343 177.47237 
L 140.96612 173.459944 
L 141.177897 177.497049 
L 141.389674 176.545496 
L 141.601452 175.01221 
L 141.813229 177.774715 
L 142.025006 173.280908 
L 142.236783 171.760427 
L 142.448561 178.013537 
L 142.660338 173.222837 
L 142.872115 173.793094 
L 143.083893 175.34023 
L 143.29567 172.104624 
L 143.507447 178.779297 
L 143.719224 175.067293 
L 143.931002 176.149343 
L 144.142779 172.800124 
L 144.354556 177.243065 
L 144.566333 177.430787 
L 144.778111 177.372863 
L 144.989888 174.636141 
L 145.201665 176.890706 
L 145.413442 174.108024 
L 145.62522 176.20322 
L 145.836997 176.03704 
L 146.048774 173.44659 
L 146.260552 175.504374 
L 146.472329 173.162994 
L 146.684106 175.102616 
L 146.895883 174.78016 
L 147.107661 172.049364 
L 147.319438 174.312632 
L 147.531215 174.34445 
L 147.742992 171.358093 
L 147.95477 173.833422 
L 148.166547 173.588623 
L 148.378324 168.288474 
L 148.590101 173.52937 
L 149.013656 173.187879 
L 149.225433 169.166811 
L 149.43721 167.93605 
L 149.648988 172.946657 
L 150.072542 172.738977 
L 150.28432 169.391586 
L 150.496097 175.524167 
L 150.707874 175.949666 
L 150.919651 180.718875 
L 151.131429 176.339182 
L 151.343206 181.000863 
L 151.978538 180.166302 
L 152.190315 175.929095 
L 152.402092 179.876607 
L 152.613869 179.525746 
L 152.825647 171.318539 
L 153.037424 179.288874 
L 153.460978 178.587369 
L 153.672756 171.096082 
L 153.884533 178.487123 
L 154.09631 178.089571 
L 154.308088 170.888314 
L 154.519865 178.105524 
L 154.731642 177.608546 
L 155.155197 171.106 
L 155.366974 177.550372 
L 155.578751 171.722763 
L 155.790528 177.427646 
L 156.002306 173.31558 
L 156.214083 177.171458 
L 156.42586 171.982523 
L 156.637637 172.685311 
L 156.849415 176.960622 
L 157.061192 175.507177 
L 157.272969 164.465108 
L 157.484746 162.267856 
L 157.696524 166.426183 
L 157.908301 172.844721 
L 158.120078 166.065611 
L 158.331856 167.108664 
L 158.543633 166.381499 
L 158.75541 169.162238 
L 158.967187 180.922303 
L 159.390742 155.858966 
L 159.602519 171.634883 
L 159.814296 174.830765 
L 160.026074 175.969148 
L 160.449628 171.631349 
L 160.661405 160.80064 
L 160.873183 176.689443 
L 161.296737 175.017077 
L 161.508514 174.823191 
L 161.932069 175.054977 
L 162.143846 295.488 
L 162.355624 171.667951 
L 162.567401 172.976839 
L 162.779178 169.43665 
L 162.990955 169.585068 
L 163.41451 173.709405 
L 163.626287 173.740256 
L 163.838064 170.277556 
L 164.049842 170.951181 
L 164.261619 170.197429 
L 164.473396 173.035298 
L 164.685173 170.210834 
L 164.896951 177.174098 
L 165.108728 171.404005 
L 165.320505 170.845823 
L 165.532283 177.405217 
L 165.955837 169.858873 
L 166.167614 177.783464 
L 166.379392 172.75492 
L 166.591169 171.022674 
L 166.802946 178.164479 
L 167.014723 173.426873 
L 167.226501 172.928765 
L 167.438278 177.415044 
L 167.650055 176.959841 
L 168.07361 172.068343 
L 168.285387 176.869064 
L 168.497164 174.120486 
L 168.708941 176.527944 
L 168.920719 174.126514 
L 169.132496 169.588899 
L 169.344273 175.987512 
L 169.767828 175.506676 
L 169.979605 171.31155 
L 170.191382 171.562487 
L 170.40316 175.186704 
L 170.614937 174.972741 
L 170.826714 168.540963 
L 171.250269 178.51555 
L 171.462046 173.809389 
L 171.673823 178.712886 
L 171.8856 175.156433 
L 172.097378 178.33845 
L 172.309155 175.417009 
L 172.520932 178.213342 
L 172.732709 171.276503 
L 172.944487 177.959283 
L 173.156264 171.813151 
L 173.368041 177.778313 
L 173.579819 177.607802 
L 173.791596 172.254674 
L 174.003373 172.561985 
L 174.21515 176.965253 
L 174.638705 171.895094 
L 174.850482 171.359369 
L 175.062259 176.613991 
L 175.485814 169.737977 
L 175.697591 176.385768 
L 175.909368 170.003514 
L 176.121146 169.521814 
L 176.332923 175.942835 
L 176.5447 170.865928 
L 176.756477 175.693499 
L 176.968255 169.903564 
L 177.180032 172.810217 
L 177.391809 172.816193 
L 177.603587 168.765463 
L 177.815364 175.599212 
L 178.027141 172.646064 
L 178.238918 173.868008 
L 178.450696 172.830322 
L 178.662473 173.038032 
L 178.87425 168.501589 
L 179.086027 175.335045 
L 179.297805 170.996388 
L 179.509582 172.789466 
L 179.933136 171.885038 
L 180.144914 173.548012 
L 180.356691 171.220241 
L 180.568468 173.666569 
L 180.780246 169.893298 
L 180.992023 176.066292 
L 181.2038 170.03729 
L 181.415577 176.192012 
L 181.627355 173.934685 
L 181.839132 177.876667 
L 182.262686 173.393945 
L 182.474464 177.726205 
L 182.686241 175.148904 
L 182.898018 177.506973 
L 183.109795 174.088658 
L 183.321573 173.435534 
L 183.53335 170.662457 
L 183.745127 177.179094 
L 183.956904 176.576352 
L 184.168682 172.391722 
L 184.380459 172.401951 
L 184.592236 176.52641 
L 184.804014 172.619115 
L 185.015791 172.079546 
L 185.227568 168.59212 
L 185.439345 176.038758 
L 185.651123 176.699355 
L 185.8629 178.898761 
L 186.498232 173.302183 
L 186.710009 176.832432 
L 186.921786 176.569443 
L 187.345341 174.623611 
L 187.557118 176.216436 
L 187.768895 172.842333 
L 187.980672 175.942907 
L 188.19245 172.996975 
L 188.404227 173.794499 
L 188.616004 175.470215 
L 188.827782 173.328006 
L 189.039559 175.177588 
L 189.251336 171.74137 
L 189.463113 171.063234 
L 189.674891 174.9855 
L 189.886668 172.042208 
L 190.098445 175.002868 
L 190.310222 171.773904 
L 190.522 174.606412 
L 190.733777 171.899429 
L 190.945554 171.832464 
L 191.157331 174.475176 
L 191.580886 172.880461 
L 191.792663 174.234506 
L 192.00444 173.349979 
L 192.216218 170.398414 
L 192.427995 171.366757 
L 192.639772 175.114904 
L 192.85155 174.013787 
L 193.063327 175.038842 
L 193.275104 172.190478 
L 193.486881 174.930884 
L 193.698659 174.267804 
L 193.910436 177.035447 
L 194.122213 175.909597 
L 194.33399 176.014793 
L 194.545768 175.398277 
L 194.757545 176.998356 
L 194.969322 174.952675 
L 195.181099 176.968811 
L 195.392877 177.14071 
L 195.604654 173.803951 
L 195.816431 172.717955 
L 196.028209 177.129643 
L 196.239986 174.249254 
L 196.451763 177.191914 
L 196.66354 171.821975 
L 196.875318 177.234091 
L 197.087095 173.964208 
L 197.298872 174.832209 
L 197.510649 175.147612 
L 197.722427 173.529137 
L 197.934204 177.417398 
L 198.145981 173.454601 
L 198.357758 173.465645 
L 198.569536 177.471652 
L 198.781313 173.984584 
L 198.99309 174.87364 
L 199.204867 177.729964 
L 199.416645 174.980974 
L 199.628422 175.480603 
L 199.840199 171.78726 
L 200.051977 178.035115 
L 200.263754 172.750953 
L 200.475531 178.558685 
L 200.687308 170.654595 
L 200.899086 178.351012 
L 201.110863 178.227808 
L 201.32264 171.604098 
L 201.534417 177.837246 
L 201.746195 177.577724 
L 201.957972 170.86257 
L 202.169749 177.325247 
L 202.381526 176.955296 
L 202.593304 173.840094 
L 203.016858 173.753382 
L 203.228635 170.25677 
L 203.440413 176.461327 
L 203.65219 176.085348 
L 203.863967 172.453424 
L 204.075745 175.571874 
L 204.287522 169.253313 
L 204.499299 175.13903 
L 204.711076 174.918606 
L 204.922854 174.928056 
L 205.134631 169.592052 
L 205.346408 174.378649 
L 205.558185 174.321827 
L 205.769963 171.543419 
L 205.98174 174.034382 
L 206.193517 167.765312 
L 206.405294 173.935886 
L 206.617072 168.761182 
L 206.828849 173.533798 
L 207.040626 173.247526 
L 207.252403 170.60778 
L 207.464181 178.649077 
L 207.675958 173.264646 
L 207.887735 181.107051 
L 208.099513 181.486446 
L 208.31129 177.407378 
L 208.523067 177.430022 
L 208.734844 180.996604 
L 208.946622 180.592889 
L 209.158399 180.463303 
L 209.370176 173.754423 
L 209.581953 180.173777 
L 209.793731 179.895738 
L 210.005508 152.0523 
L 210.217285 163.734789 
L 210.429062 167.775668 
L 210.64084 168.635955 
L 210.852617 168.213958 
L 211.064394 167.388152 
L 211.276171 177.888776 
L 211.487949 166.005833 
L 212.123281 168.697518 
L 212.335058 172.126025 
L 212.546835 178.883198 
L 212.758612 179.252695 
L 212.97039 179.275279 
L 213.182167 179.082294 
L 213.605721 179.355532 
L 213.817499 178.355015 
L 214.241053 179.927735 
L 214.45283 178.020796 
L 214.664608 179.219249 
L 214.876385 166.594834 
L 215.088162 177.910216 
L 215.29994 173.105524 
L 215.511717 171.516541 
L 215.723494 170.992572 
L 215.935271 170.916178 
L 216.147049 172.576466 
L 216.358826 185.507121 
L 216.570603 173.902049 
L 217.417712 173.177727 
L 217.629489 160.981146 
L 217.841267 169.754265 
L 218.053044 154.657795 
L 218.264821 167.653993 
L 218.476598 167.879052 
L 218.900153 173.547235 
L 219.11193 173.668214 
L 219.747262 172.73502 
L 219.959039 173.62336 
L 220.170817 175.512003 
L 220.382594 175.196061 
L 220.806148 173.831746 
L 221.017926 173.374034 
L 221.229703 173.338819 
L 221.653257 173.607836 
L 222.288589 175.059194 
L 222.712144 175.233811 
L 222.923921 175.269252 
L 223.77103 174.803435 
L 223.982807 174.931168 
L 224.406362 174.90512 
L 225.253471 175.051734 
L 225.677025 174.986648 
L 226.312357 174.904943 
L 226.524134 175.022483 
L 226.735912 174.877857 
L 228.006575 175.080667 
L 228.853684 174.954013 
L 229.065462 175.061822 
L 229.700793 174.916676 
L 230.547903 175.178299 
L 230.75968 175.00043 
L 231.606789 174.902042 
L 231.818566 175.055498 
L 232.030343 174.088191 
L 232.453898 173.862703 
L 232.877452 174.541927 
L 233.08923 174.493545 
L 233.301007 174.603971 
L 233.724561 174.550682 
L 234.995225 174.670678 
L 235.207002 174.476579 
L 235.41878 174.597312 
L 235.630557 174.514791 
L 235.842334 174.605421 
L 236.265889 174.542397 
L 237.536552 174.503977 
L 237.748329 53.568 
L 237.960107 176.310831 
L 238.171884 173.731765 
L 238.383661 173.759284 
L 238.595439 173.253519 
L 238.807216 173.607581 
L 239.018993 172.908349 
L 239.23077 172.891165 
L 239.442548 173.040992 
L 239.654325 172.769755 
L 239.866102 177.096413 
L 240.077879 176.821188 
L 240.289657 176.923228 
L 240.501434 176.733004 
L 240.713211 174.869532 
L 240.924988 175.084829 
L 241.348543 175.731043 
L 241.56032 177.460004 
L 241.772097 177.032515 
L 241.983875 175.776216 
L 242.195652 176.959944 
L 242.407429 170.618109 
L 242.619207 175.856813 
L 242.830984 171.161451 
L 243.042761 177.094774 
L 243.254538 172.885414 
L 243.466316 171.725067 
L 243.678093 175.704505 
L 243.88987 174.131355 
L 244.101647 169.485664 
L 244.313425 175.822459 
L 244.525202 176.246295 
L 244.736979 177.345414 
L 244.948756 171.399789 
L 245.372311 177.188022 
L 245.584088 170.696089 
L 245.795866 176.993419 
L 246.007643 174.031782 
L 246.21942 173.450906 
L 246.431197 176.111861 
L 246.642975 170.637306 
L 246.854752 177.083326 
L 247.066529 169.986238 
L 247.278306 176.796566 
L 247.701861 168.715906 
L 247.913638 176.677046 
L 248.337193 169.654198 
L 248.54897 176.015417 
L 248.760747 176.3563 
L 248.972524 169.735108 
L 249.184302 176.727761 
L 249.396079 176.94468 
L 249.607856 170.726475 
L 249.819634 177.611884 
L 250.031411 177.281073 
L 250.454965 168.531684 
L 250.666743 177.089115 
L 250.87852 170.769735 
L 251.090297 176.681339 
L 251.302074 171.257125 
L 251.513852 168.860557 
L 251.725629 176.560072 
L 251.937406 173.739287 
L 252.360961 171.805677 
L 252.572738 171.325579 
L 252.784515 176.353508 
L 253.20807 167.883852 
L 253.419847 176.496212 
L 253.631624 169.143003 
L 253.843402 176.949179 
L 254.055179 169.84279 
L 254.266956 177.240032 
L 254.478733 176.666554 
L 254.690511 171.98735 
L 254.902288 171.194598 
L 255.114065 176.42259 
L 255.53762 169.44998 
L 255.749397 177.320421 
L 255.961174 177.494086 
L 256.384729 172.817432 
L 256.596506 172.042829 
L 256.808283 176.633538 
L 257.02006 173.836905 
L 257.231838 173.138268 
L 257.443615 175.745054 
L 257.655392 170.631674 
L 257.86717 175.548929 
L 258.078947 172.008632 
L 258.290724 173.619121 
L 258.714279 170.774718 
L 258.926056 174.971208 
L 259.137833 172.447244 
L 259.34961 172.717006 
L 259.561388 174.629905 
L 259.773165 170.379342 
L 259.984942 176.52732 
L 260.196719 173.269154 
L 260.408497 172.453196 
L 260.620274 176.626691 
L 260.832051 174.601886 
L 261.043829 174.139897 
L 261.255606 176.52511 
L 261.467383 172.397505 
L 261.67916 173.93974 
L 261.890938 176.868529 
L 262.102715 171.621903 
L 262.314492 177.130693 
L 262.738047 174.832649 
L 262.949824 173.954338 
L 263.161601 174.949008 
L 263.373378 174.24251 
L 263.585156 173.060054 
L 264.00871 173.937092 
L 264.220487 175.304566 
L 264.432265 174.603772 
L 264.644042 173.116225 
L 264.855819 173.181239 
L 265.279374 173.935069 
L 265.491151 172.483218 
L 265.702928 174.284208 
L 265.914706 174.349292 
L 266.126483 174.535614 
L 266.33826 174.210199 
L 266.550037 174.267704 
L 266.761815 174.896363 
L 266.973592 173.642371 
L 267.185369 174.032538 
L 267.397146 174.087005 
L 267.608924 171.475952 
L 267.820701 174.157742 
L 268.032478 174.477102 
L 268.244255 174.078508 
L 268.456033 171.199214 
L 268.66781 174.147805 
L 268.879587 171.457892 
L 269.091365 174.316549 
L 269.303142 173.729574 
L 269.514919 174.280583 
L 269.726696 174.063771 
L 269.938474 172.533043 
L 270.150251 174.138109 
L 270.362028 174.642416 
L 270.573805 173.438814 
L 270.785583 176.159846 
L 270.99736 175.982267 
L 271.209137 174.108112 
L 271.420914 174.209216 
L 271.632692 172.916221 
L 271.844469 176.250998 
L 272.056246 173.522117 
L 272.268023 176.318582 
L 272.479801 173.630618 
L 272.691578 176.404012 
L 272.903355 176.497843 
L 273.115133 173.068918 
L 273.32691 173.778042 
L 273.538687 176.57312 
L 273.962242 171.998856 
L 274.174019 176.609762 
L 274.385796 174.553056 
L 274.597573 171.091954 
L 274.809351 176.630074 
L 275.021128 171.425105 
L 275.232905 176.647775 
L 275.444682 173.50965 
L 275.65646 176.743659 
L 275.868237 169.901772 
L 276.080014 176.68771 
L 276.291791 176.825965 
L 276.503569 171.195558 
L 276.715346 176.836029 
L 277.138901 173.773123 
L 277.350678 176.960022 
L 277.562455 174.201703 
L 277.774232 177.087803 
L 277.98601 171.371604 
L 278.197787 177.112333 
L 278.409564 174.797526 
L 278.621341 161.514472 
L 278.833119 169.358806 
L 279.044896 170.360269 
L 279.256673 169.112504 
L 279.46845 168.965996 
L 279.680228 169.576633 
L 279.892005 174.981966 
L 280.103782 195.457405 
L 280.31556 183.510861 
L 280.739114 183.779364 
L 280.950891 170.423559 
L 281.162669 178.64765 
L 281.374446 164.727634 
L 281.586223 175.13061 
L 281.798 175.882896 
L 282.433332 176.666456 
L 282.645109 295.488 
L 282.856887 172.888207 
L 283.068664 172.920936 
L 283.703996 173.654672 
L 283.915773 173.800378 
L 284.551105 174.67073 
L 284.762882 174.798127 
L 284.974659 175.239989 
L 285.398214 173.830384 
L 286.033546 172.829113 
L 286.245323 173.233819 
L 286.4571 173.348678 
L 286.880655 176.877664 
L 287.092432 177.302779 
L 287.304209 177.345822 
L 287.727764 176.738595 
L 287.939541 176.595972 
L 288.574873 175.621746 
L 288.78665 175.396098 
L 289.210205 174.742223 
L 289.421982 174.501382 
L 289.633759 174.78966 
L 289.845536 168.646198 
L 290.057314 175.116917 
L 290.269091 169.136106 
L 290.480868 175.357283 
L 290.692645 171.561303 
L 290.904423 175.616048 
L 291.327977 168.335783 
L 291.539754 175.865194 
L 291.751532 176.079745 
L 291.963309 170.993889 
L 292.175086 172.521068 
L 292.386864 177.422897 
L 292.598641 173.277797 
L 292.810418 172.67152 
L 293.022195 176.942082 
L 293.233973 171.681825 
L 293.44575 172.302845 
L 293.657527 176.896842 
L 293.869304 171.659497 
L 294.081082 172.324727 
L 294.292859 176.757243 
L 294.504636 169.94948 
L 294.716413 169.67916 
L 294.928191 176.425015 
L 295.351745 169.43228 
L 295.563523 176.403341 
L 295.7753 169.507945 
L 295.987077 177.905262 
L 296.198854 173.95895 
L 296.410632 175.343968 
L 296.834186 172.228309 
L 297.045963 176.784389 
L 297.257741 171.453665 
L 297.469518 176.650194 
L 297.681295 176.594358 
L 297.893072 172.971632 
L 298.10485 172.373338 
L 298.316627 176.088403 
L 298.528404 175.933633 
L 298.740181 171.201653 
L 298.951959 175.732554 
L 299.163736 169.470045 
L 299.375513 175.482487 
L 299.587291 175.182825 
L 299.799068 171.770063 
L 300.010845 175.954748 
L 300.222622 173.417786 
L 300.4344 173.977175 
L 300.646177 178.179964 
L 300.857954 171.813371 
L 301.069731 178.111129 
L 301.281509 171.53403 
L 301.493286 177.817731 
L 301.705063 177.559415 
L 301.91684 170.2423 
L 302.128618 177.331626 
L 302.340395 172.793711 
L 302.763949 174.159528 
L 302.975727 173.489025 
L 303.187504 169.647078 
L 303.399281 176.746593 
L 303.611059 169.153233 
L 303.822836 176.567725 
L 304.034613 170.740179 
L 304.24639 176.27322 
L 304.458168 170.008909 
L 304.669945 176.091478 
L 304.881722 170.227166 
L 305.093499 171.33005 
L 305.305277 173.757406 
L 305.517054 170.147471 
L 305.728831 176.061644 
L 306.152386 170.349781 
L 306.364163 173.129976 
L 306.57594 168.349437 
L 306.787717 176.669568 
L 306.999495 176.778589 
L 307.211272 171.223474 
L 307.423049 176.854781 
L 307.634827 170.871229 
L 307.846604 177.200505 
L 308.058381 170.879704 
L 308.270158 177.542604 
L 308.481936 170.625673 
L 308.693713 177.776235 
L 308.90549 178.059234 
L 309.329045 171.584575 
L 309.540822 178.245768 
L 309.752599 178.303547 
L 310.176154 172.321105 
L 310.387931 177.075329 
L 310.599708 174.456175 
L 310.811486 176.800737 
L 311.023263 173.243845 
L 311.23504 174.137567 
L 311.446817 176.398519 
L 311.658595 172.562333 
L 311.870372 171.988092 
L 312.082149 176.167151 
L 312.293926 171.204461 
L 312.505704 176.110107 
L 312.717481 172.706977 
L 312.929258 176.171848 
L 313.352813 171.873523 
L 313.56459 172.842345 
L 313.776367 175.404943 
L 313.988144 175.127242 
L 314.199922 172.980018 
L 314.411699 174.46754 
L 314.623476 169.3697 
L 314.835254 171.039564 
L 315.047031 175.042538 
L 315.258808 172.686976 
L 315.470585 172.962355 
L 315.682363 174.040089 
L 315.89414 173.46408 
L 316.105917 173.223875 
L 316.317694 174.542383 
L 316.529472 170.559362 
L 316.741249 176.470554 
L 316.953026 171.426536 
L 317.164803 176.792236 
L 317.376581 177.205294 
L 317.588358 173.791285 
L 317.800135 173.629469 
L 318.011912 177.367401 
L 318.435467 172.3148 
L 318.647244 172.321547 
L 318.859022 177.468365 
L 319.494353 172.147119 
L 319.706131 175.872351 
L 319.917908 175.982491 
L 320.129685 172.483148 
L 320.341462 175.110527 
L 320.55324 173.281788 
L 320.765017 175.826433 
L 320.976794 175.875126 
L 321.188571 172.576496 
L 321.400349 175.717009 
L 321.612126 173.134057 
L 321.823903 175.613965 
L 322.03568 173.818817 
L 322.247458 173.837982 
L 322.459235 175.546009 
L 322.671012 175.650789 
L 322.88279 174.815762 
L 323.094567 175.489492 
L 323.306344 174.328953 
L 323.518121 172.29403 
L 323.729899 175.532607 
L 323.941676 175.175286 
L 324.153453 175.412784 
L 324.36523 173.950225 
L 324.577008 174.631609 
L 324.788785 173.932335 
L 325.000562 175.222941 
L 325.212339 175.320543 
L 325.635894 173.21106 
L 325.847671 175.340323 
L 326.059448 173.317724 
L 326.271226 175.345115 
L 326.483003 172.444004 
L 326.69478 171.776017 
L 326.906558 175.464431 
L 327.118335 173.994281 
L 327.330112 175.456094 
L 327.541889 172.92239 
L 327.753667 172.648536 
L 328.177221 176.034207 
L 328.388998 176.199336 
L 328.812553 174.572906 
L 329.02433 176.262452 
L 329.236107 175.901669 
L 329.447885 172.472659 
L 329.659662 176.317476 
L 329.871439 173.472089 
L 330.083217 176.359226 
L 330.294994 174.360749 
L 330.506771 176.432611 
L 330.718548 171.072148 
L 330.930326 176.378048 
L 331.142103 173.849499 
L 331.35388 176.43698 
L 331.565657 171.23379 
L 331.777435 176.376889 
L 331.989212 171.066993 
L 332.200989 176.30579 
L 332.412766 176.440655 
L 332.624544 170.734953 
L 332.836321 176.396708 
L 333.048098 171.315491 
L 333.259875 176.353865 
L 333.471653 174.315131 
L 333.68343 176.451743 
L 333.895207 175.007791 
L 334.106985 171.414357 
L 334.318762 176.439284 
L 334.530539 175.546482 
L 334.742316 176.608396 
L 335.165871 172.763904 
L 335.377648 176.628723 
L 335.801203 172.480507 
L 336.01298 176.659275 
L 336.436534 172.692249 
L 336.648312 176.67342 
L 336.860089 173.741481 
L 337.071866 176.76159 
L 337.283643 176.273774 
L 337.495421 172.288414 
L 337.707198 176.843746 
L 337.918975 173.837556 
L 338.130753 175.514268 
L 338.34253 172.95202 
L 338.554307 172.982516 
L 338.766084 295.488 
L 338.977862 173.809046 
L 339.401416 174.084997 
L 339.824971 175.276388 
L 340.036748 175.361134 
L 340.248525 176.234595 
L 340.460302 174.066451 
L 340.67208 173.989466 
L 341.095634 174.024244 
L 341.307411 173.927183 
L 341.730966 174.413431 
L 341.942743 174.149304 
L 342.578075 174.97324 
L 342.789852 174.856461 
L 343.00163 174.950355 
L 343.213407 174.795365 
L 343.425184 174.945275 
L 343.848739 174.719716 
L 344.060516 175.868532 
L 344.48407 175.922406 
L 344.695848 176.173471 
L 344.907625 170.135866 
L 345.119402 176.561523 
L 345.33118 169.546969 
L 345.542957 170.891862 
L 345.754734 176.674265 
L 345.966511 169.978265 
L 346.178289 177.045453 
L 346.390066 172.881731 
L 346.601843 177.123142 
L 346.81362 174.100775 
L 347.025398 174.557709 
L 347.237175 169.897281 
L 347.448952 176.022141 
L 347.660729 170.965185 
L 347.872507 175.550268 
L 348.084284 175.141818 
L 348.296061 170.765148 
L 348.507838 175.384468 
L 348.719616 177.273216 
L 348.931393 174.535552 
L 349.14317 177.578262 
L 349.354948 171.497984 
L 349.566725 178.177775 
L 349.778502 177.94611 
L 349.990279 172.301695 
L 350.202057 177.476134 
L 350.413834 171.73962 
L 350.625611 171.62271 
L 350.837388 177.462772 
L 351.049166 171.256313 
L 351.260943 177.081891 
L 351.684497 170.965442 
L 351.896275 177.060812 
L 352.108052 172.327586 
L 352.319829 170.688551 
L 352.531606 176.630228 
L 352.955161 171.880278 
L 353.166938 173.927807 
L 353.378716 169.738051 
L 353.590493 176.596034 
L 353.80227 171.777611 
L 354.014047 173.268357 
L 354.225825 171.074754 
L 354.437602 176.201343 
L 354.649379 174.326963 
L 354.861156 176.490001 
L 355.072934 170.617437 
L 355.284711 170.808703 
L 355.496488 176.833787 
L 355.708265 177.113466 
L 355.920043 171.977863 
L 356.13182 177.561732 
L 356.343597 177.806448 
L 356.555374 171.70065 
L 356.767152 177.959113 
L 356.978929 177.607107 
L 357.402484 172.251997 
L 357.826038 177.376709 
L 358.037815 174.789292 
L 358.249593 173.928229 
L 358.46137 171.009668 
L 358.673147 176.982346 
L 359.096702 169.567425 
L 359.308479 176.623722 
L 359.520256 171.859342 
L 359.732033 176.297705 
L 359.943811 171.149012 
L 360.155588 171.446055 
L 360.367365 176.259946 
L 360.579143 169.43246 
L 361.002697 175.959643 
L 361.426252 170.432222 
L 361.638029 170.074022 
L 361.849806 175.887882 
L 362.273361 169.377355 
L 362.485138 175.644686 
L 362.908692 171.975892 
L 363.12047 172.469376 
L 363.332247 169.440447 
L 363.544024 175.188503 
L 363.755801 170.873687 
L 363.967579 174.634792 
L 364.179356 171.239127 
L 364.391133 176.513688 
L 364.814688 171.293124 
L 365.026465 176.330679 
L 365.238242 176.66262 
L 365.45002 174.041154 
L 365.661797 173.684532 
L 365.873574 176.618294 
L 366.085351 172.584744 
L 366.297129 176.857321 
L 366.508906 173.79335 
L 366.720683 174.854617 
L 366.93246 172.5896 
L 367.144238 177.27465 
L 367.356015 174.671493 
L 367.567792 175.04039 
L 367.991347 172.187596 
L 368.203124 177.568655 
L 368.414901 174.905089 
L 368.626679 174.35127 
L 368.838456 174.510219 
L 369.050233 171.191773 
L 369.26201 174.479801 
L 369.473788 175.230416 
L 369.685565 173.358042 
L 369.897342 174.128605 
L 370.109119 174.191636 
L 370.320897 174.854948 
L 370.744451 173.637258 
L 370.956228 174.990632 
L 371.168006 174.603803 
L 371.59156 174.876834 
L 372.015115 173.073841 
L 372.438669 174.888001 
L 372.650447 172.370531 
L 372.862224 174.869882 
L 373.074001 174.938491 
L 373.497556 173.467209 
L 373.709333 174.790422 
L 373.92111 174.857503 
L 374.132887 174.256323 
L 374.344665 171.813925 
L 374.556442 174.816693 
L 374.768219 174.885258 
L 374.979996 173.492876 
L 375.191774 174.809744 
L 375.403551 171.986112 
L 375.615328 173.092012 
L 375.827105 174.977579 
L 376.038883 172.495154 
L 376.462437 175.137447 
L 376.674215 174.048523 
L 376.885992 170.586302 
L 377.097769 175.124214 
L 377.309546 175.209445 
L 377.521324 173.159169 
L 377.944878 176.061246 
L 378.156655 175.800175 
L 378.368433 176.197336 
L 378.58021 172.116356 
L 378.791987 176.191585 
L 379.003764 174.47548 
L 379.215542 176.271026 
L 379.427319 176.368696 
L 379.639096 172.79658 
L 379.850874 176.395046 
L 380.062651 175.369985 
L 380.274428 176.523322 
L 380.486205 174.082029 
L 380.697983 176.591118 
L 380.90976 173.336924 
L 381.121537 176.625365 
L 381.333314 176.73729 
L 381.545092 176.072215 
L 381.756869 174.444871 
L 381.968646 176.890968 
L 382.180423 175.027743 
L 382.392201 176.230246 
L 382.603978 172.643131 
L 382.815755 176.978733 
L 383.027532 170.877485 
L 383.23931 176.925508 
L 383.451087 173.405642 
L 383.662864 174.476756 
L 383.874642 172.860798 
L 384.086419 176.902343 
L 384.298196 173.561645 
L 384.509973 175.728641 
L 384.721751 172.856701 
L 384.933528 162.696973 
L 385.357082 180.010686 
L 385.56886 170.915161 
L 385.780637 173.804567 
L 385.992414 171.468474 
L 386.204191 158.555335 
L 386.415969 170.728701 
L 386.839523 171.022096 
L 387.263078 171.838493 
L 388.110187 173.597407 
L 388.533741 173.727332 
L 389.38085 173.449609 
L 389.592628 174.098278 
L 390.016182 173.786443 
L 390.863291 173.657955 
L 391.498623 174.210198 
L 391.7104 173.38145 
L 391.922178 173.610507 
L 392.557509 173.612742 
L 392.769287 173.623269 
L 393.192841 174.624177 
L 393.404618 174.38798 
L 393.616396 174.403282 
L 393.828173 174.572073 
L 394.251727 174.501101 
L 395.098837 174.526137 
L 398.275495 174.527998 
L 398.487273 53.568 
L 398.487273 53.568 
" clip-path="url(#p64e2e02bf1)" style="fill: none; stroke: #0000ff; stroke-width: 1.5; stroke-linecap: square"/>
   </g>
   <g id="patch_3">
    <path d="M 57.6 307.584 
L 57.6 41.472 
" style="fill: none; stroke: #000000; stroke-width: 0.8; stroke-linejoin: miter; stroke-linecap: square"/>
   </g>
   <g id="patch_4">
    <path d="M 414.72 307.584 
L 414.72 41.472 
" style="fill: none; stroke: #000000; stroke-width: 0.8; stroke-linejoin: miter; stroke-linecap: square"/>
   </g>
   <g id="patch_5">
    <path d="M 57.6 307.584 
L 414.72 307.584 
" style="fill: none; stroke: #000000; stroke-width: 0.8; stroke-linejoin: miter; stroke-linecap: square"/>
   </g>
   <g id="patch_6">
    <path d="M 57.6 41.472 
L 414.72 41.472 
" style="fill: none; stroke: #000000; stroke-width: 0.8; stroke-linejoin: miter; stroke-linecap: square"/>
   </g>
   <g id="text_21">
    <!-- Genome's fitness during test -->
    <g transform="translate(149.558437 35.472)scale(0.12 -0.12)">
     <defs>
      <path id="DejaVuSans-47" d="M 3809 666 
L 3809 1919 
L 2778 1919 
L 2778 2438 
L 4434 2438 
L 4434 434 
Q 4069 175 3628 42 
Q 3188 -91 2688 -91 
Q 1594 -91 976 548 
Q 359 1188 359 2328 
Q 359 3472 976 4111 
Q 1594 4750 2688 4750 
Q 3144 4750 3555 4637 
Q 3966 4525 4313 4306 
L 4313 3634 
Q 3963 3931 3569 4081 
Q 3175 4231 2741 4231 
Q 1884 4231 1454 3753 
Q 1025 3275 1025 2328 
Q 1025 1384 1454 906 
Q 1884 428 2741 428 
Q 3075 428 3337 486 
Q 3600 544 3809 666 
z
" transform="scale(0.015625)"/>
      <path id="DejaVuSans-6f" d="M 1959 3097 
Q 1497 3097 1228 2736 
Q 959 2375 959 1747 
Q 959 1119 1226 758 
Q 1494 397 1959 397 
Q 2419 397 2687 759 
Q 2956 1122 2956 1747 
Q 2956 2369 2687 2733 
Q 2419 3097 1959 3097 
z
M 1959 3584 
Q 2709 3584 3137 3096 
Q 3566 2609 3566 1747 
Q 3566 888 3137 398 
Q 2709 -91 1959 -91 
Q 1206 -91 779 398 
Q 353 888 353 1747 
Q 353 2609 779 3096 
Q 1206 3584 1959 3584 
z
" transform="scale(0.015625)"/>
      <path id="DejaVuSans-6d" d="M 3328 2828 
Q 3544 3216 3844 3400 
Q 4144 3584 4550 3584 
Q 5097 3584 5394 3201 
Q 5691 2819 5691 2113 
L 5691 0 
L 5113 0 
L 5113 2094 
Q 5113 2597 4934 2840 
Q 4756 3084 4391 3084 
Q 3944 3084 3684 2787 
Q 3425 2491 3425 1978 
L 3425 0 
L 2847 0 
L 2847 2094 
Q 2847 2600 2669 2842 
Q 2491 3084 2119 3084 
Q 1678 3084 1418 2786 
Q 1159 2488 1159 1978 
L 1159 0 
L 581 0 
L 581 3500 
L 1159 3500 
L 1159 2956 
Q 1356 3278 1631 3431 
Q 1906 3584 2284 3584 
Q 2666 3584 2933 3390 
Q 3200 3197 3328 2828 
z
" transform="scale(0.015625)"/>
      <path id="DejaVuSans-27" d="M 1147 4666 
L 1147 2931 
L 616 2931 
L 616 4666 
L 1147 4666 
z
" transform="scale(0.015625)"/>
      <path id="DejaVuSans-20" transform="scale(0.015625)"/>
      <path id="DejaVuSans-66" d="M 2375 4863 
L 2375 4384 
L 1825 4384 
Q 1516 4384 1395 4259 
Q 1275 4134 1275 3809 
L 1275 3500 
L 2222 3500 
L 2222 3053 
L 1275 3053 
L 1275 0 
L 697 0 
L 697 3053 
L 147 3053 
L 147 3500 
L 697 3500 
L 697 3744 
Q 697 4328 969 4595 
Q 1241 4863 1831 4863 
L 2375 4863 
z
" transform="scale(0.015625)"/>
      <path id="DejaVuSans-64" d="M 2906 2969 
L 2906 4863 
L 3481 4863 
L 3481 0 
L 2906 0 
L 2906 525 
Q 2725 213 2448 61 
Q 2172 -91 1784 -91 
Q 1150 -91 751 415 
Q 353 922 353 1747 
Q 353 2572 751 3078 
Q 1150 3584 1784 3584 
Q 2172 3584 2448 3432 
Q 2725 3281 2906 2969 
z
M 947 1747 
Q 947 1113 1208 752 
Q 1469 391 1925 391 
Q 2381 391 2643 752 
Q 2906 1113 2906 1747 
Q 2906 2381 2643 2742 
Q 2381 3103 1925 3103 
Q 1469 3103 1208 2742 
Q 947 2381 947 1747 
z
" transform="scale(0.015625)"/>
      <path id="DejaVuSans-75" d="M 544 1381 
L 544 3500 
L 1119 3500 
L 1119 1403 
Q 1119 906 1312 657 
Q 1506 409 1894 409 
Q 2359 409 2629 706 
Q 2900 1003 2900 1516 
L 2900 3500 
L 3475 3500 
L 3475 0 
L 2900 0 
L 2900 538 
Q 2691 219 2414 64 
Q 2138 -91 1772 -91 
Q 1169 -91 856 284 
Q 544 659 544 1381 
z
M 1991 3584 
L 1991 3584 
z
" transform="scale(0.015625)"/>
      <path id="DejaVuSans-72" d="M 2631 2963 
Q 2534 3019 2420 3045 
Q 2306 3072 2169 3072 
Q 1681 3072 1420 2755 
Q 1159 2438 1159 1844 
L 1159 0 
L 581 0 
L 581 3500 
L 1159 3500 
L 1159 2956 
Q 1341 3275 1631 3429 
Q 1922 3584 2338 3584 
Q 2397 3584 2469 3576 
Q 2541 3569 2628 3553 
L 2631 2963 
z
" transform="scale(0.015625)"/>
      <path id="DejaVuSans-67" d="M 2906 1791 
Q 2906 2416 2648 2759 
Q 2391 3103 1925 3103 
Q 1463 3103 1205 2759 
Q 947 2416 947 1791 
Q 947 1169 1205 825 
Q 1463 481 1925 481 
Q 2391 481 2648 825 
Q 2906 1169 2906 1791 
z
M 3481 434 
Q 3481 -459 3084 -895 
Q 2688 -1331 1869 -1331 
Q 1566 -1331 1297 -1286 
Q 1028 -1241 775 -1147 
L 775 -588 
Q 1028 -725 1275 -790 
Q 1522 -856 1778 -856 
Q 2344 -856 2625 -561 
Q 2906 -266 2906 331 
L 2906 616 
Q 2728 306 2450 153 
Q 2172 0 1784 0 
Q 1141 0 747 490 
Q 353 981 353 1791 
Q 353 2603 747 3093 
Q 1141 3584 1784 3584 
Q 2172 3584 2450 3431 
Q 2728 3278 2906 2969 
L 2906 3500 
L 3481 3500 
L 3481 434 
z
" transform="scale(0.015625)"/>
     </defs>
     <use xlink:href="#DejaVuSans-47"/>
     <use xlink:href="#DejaVuSans-65" x="77.490234"/>
     <use xlink:href="#DejaVuSans-6e" x="139.013672"/>
     <use xlink:href="#DejaVuSans-6f" x="202.392578"/>
     <use xlink:href="#DejaVuSans-6d" x="263.574219"/>
     <use xlink:href="#DejaVuSans-65" x="360.986328"/>
     <use xlink:href="#DejaVuSans-27" x="422.509766"/>
     <use xlink:href="#DejaVuSans-73" x="450"/>
     <use xlink:href="#DejaVuSans-20" x="502.099609"/>
     <use xlink:href="#DejaVuSans-66" x="533.886719"/>
     <use xlink:href="#DejaVuSans-69" x="569.091797"/>
     <use xlink:href="#DejaVuSans-74" x="596.875"/>
     <use xlink:href="#DejaVuSans-6e" x="636.083984"/>
     <use xlink:href="#DejaVuSans-65" x="699.462891"/>
     <use xlink:href="#DejaVuSans-73" x="760.986328"/>
     <use xlink:href="#DejaVuSans-73" x="813.085938"/>
     <use xlink:href="#DejaVuSans-20" x="865.185547"/>
     <use xlink:href="#DejaVuSans-64" x="896.972656"/>
     <use xlink:href="#DejaVuSans-75" x="960.449219"/>
     <use xlink:href="#DejaVuSans-72" x="1023.828125"/>
     <use xlink:href="#DejaVuSans-69" x="1064.941406"/>
     <use xlink:href="#DejaVuSans-6e" x="1092.724609"/>
     <use xlink:href="#DejaVuSans-67" x="1156.103516"/>
     <use xlink:href="#DejaVuSans-20" x="1219.580078"/>
     <use xlink:href="#DejaVuSans-74" x="1251.367188"/>
     <use xlink:href="#DejaVuSans-65" x="1290.576172"/>
     <use xlink:href="#DejaVuSans-73" x="1352.099609"/>
     <use xlink:href="#DejaVuSans-74" x="1404.199219"/>
    </g>
   </g>
   <g id="legend_1">
    <g id="patch_7">
     <path d="M 64.6 64.150125 
L 118.23125 64.150125 
Q 120.23125 64.150125 120.23125 62.150125 
L 120.23125 48.472 
Q 120.23125 46.472 118.23125 46.472 
L 64.6 46.472 
Q 62.6 46.472 62.6 48.472 
L 62.6 62.150125 
Q 62.6 64.150125 64.6 64.150125 
z
" style="fill: #ffffff; opacity: 0.8; stroke: #cccccc; stroke-linejoin: miter"/>
    </g>
    <g id="line2d_38">
     <path d="M 66.6 54.570438 
L 76.6 54.570438 
L 86.6 54.570438 
" style="fill: none; stroke: #0000ff; stroke-width: 1.5; stroke-linecap: square"/>
    </g>
    <g id="text_22">
     <!-- best -->
     <g transform="translate(94.6 58.070438)scale(0.1 -0.1)">
      <defs>
       <path id="DejaVuSans-62" d="M 3116 1747 
Q 3116 2381 2855 2742 
Q 2594 3103 2138 3103 
Q 1681 3103 1420 2742 
Q 1159 2381 1159 1747 
Q 1159 1113 1420 752 
Q 1681 391 2138 391 
Q 2594 391 2855 752 
Q 3116 1113 3116 1747 
z
M 1159 2969 
Q 1341 3281 1617 3432 
Q 1894 3584 2278 3584 
Q 2916 3584 3314 3078 
Q 3713 2572 3713 1747 
Q 3713 922 3314 415 
Q 2916 -91 2278 -91 
Q 1894 -91 1617 61 
Q 1341 213 1159 525 
L 1159 0 
L 581 0 
L 581 4863 
L 1159 4863 
L 1159 2969 
z
" transform="scale(0.015625)"/>
      </defs>
      <use xlink:href="#DejaVuSans-62"/>
      <use xlink:href="#DejaVuSans-65" x="63.476562"/>
      <use xlink:href="#DejaVuSans-73" x="125"/>
      <use xlink:href="#DejaVuSans-74" x="177.099609"/>
     </g>
    </g>
   </g>
  </g>
 </g>
 <defs>
  <clipPath id="p64e2e02bf1">
   <rect x="57.6" y="41.472" width="357.12" height="266.112"/>
  </clipPath>
 </defs>
</svg>
